# xmcd
# 
# Track frame offsets:
#     150
#     22337
#     35425
#     55016
#     70992
#     90035
#     103512
#     123972
#     140264
#     154719
# 
# Disc length: 2352
# 
# Revision: 1
# Processed by: cddbd v1.5.2PL0 Copyright (c) Steve Scherf et al.
# Submitted via: BonkEnc v1.0.8
# 
DISCID=78092e0a
DTITLE=Dizzy Gillespie - Soul and Salavtion
DYEAR=1969
DGENRE=Jazz
TTITLE0=Stomped and Wasted
TTITLE1=Pot Licka
TTITLE2=Blue Chuchifrito
TTITLE3=Turnip Tops
TTITLE4=The Fly Fox
TTITLE5=Chicken Giblets
TTITLE6=Casabah Melon
TTITLE7=Clabber Biscuits
TTITLE8=Rutabbag Pie
TTITLE9=Turkey Fan
EXTD=
EXTT0=
EXTT1=
EXTT2=
EXTT3=
EXTT4=
EXTT5=
EXTT6=
EXTT7=
EXTT8=
EXTT9=
PLAYORDER=
